<?xml version="1.0" encoding="UTF-8" standalone="no"?>
<svg
   xmlns:dc="http://purl.org/dc/elements/1.1/"
   xmlns:cc="http://web.resource.org/cc/"
   xmlns:rdf="http://www.w3.org/1999/02/22-rdf-syntax-ns#"
   xmlns:svg="http://www.w3.org/2000/svg"
   xmlns="http://www.w3.org/2000/svg"
   xmlns:sodipodi="http://sodipodi.sourceforge.net/DTD/sodipodi-0.dtd"
   xmlns:inkscape="http://www.inkscape.org/namespaces/inkscape"
   version="1.0"
   id="Layer_1"
   x="0px"
   y="0px"
   width="400"
   height="400"
   xml:space="preserve"
   sodipodi:version="0.32"
   inkscape:version="0.45.1">
<path
   style="fill-rule:evenodd"
   id="path7123"
   d="M 185.66995,0.53575897 C 251.93716,-4.085001 301.1972,21.876389 334.5434,51.668149 C 368.31477,81.824699 394.91884,126.69473 399.41359,186.46065 C 404.21204,251.45532 378.88351,300.82452 348.27061,333.96025 C 315.957,369.04157 274.71462,394.69896 214.15695,399.38052 C 149.46898,404.42688 99.480063,377.8575 66.255347,348.24814 C 32.909153,318.51718 3.8754901,273.64714 0.41331714,214.48922 C -3.4132949,148.52176 19.789339,100.30775 51.009637,66.442419 C 74.151532,41.393029 103.4889,19.505199 142.42316,7.892499 C 155.48223,4.062129 171.15312,1.569349 185.66995,0.53575897 M 138.47506,111.19086 C 140.60096,144.69139 137.13879,177.94872 139.50764,208.65247 C 141.8765,240.20741 168.11613,265.25681 201.8875,265.19601 C 237.96699,265.13521 264.38883,236.37704 264.26735,202.26852 C 264.14587,167.6128 236.26627,139.70583 201.40158,139.76663 C 187.37067,139.82743 176.43749,145.05619 167.99465,149.12975 C 168.29835,135.69306 167.14429,123.77636 167.50873,110.27887 C 159.12663,109.12368 148.67937,110.09647 139.50764,109.79247 C 138.8395,109.91407 138.47506,110.33967 138.47506,111.19086 M 133.55513,194.79018 C 131.30776,165.18082 107.49772,141.34741 78.038884,139.21943 C 39.226101,136.42266 12.925733,164.02563 10.739097,196.24937 C 7.3984041,246.22656 61.031717,278.2679 104.58221,253.3401 L 104.58221,263.18962 L 133.55513,263.18962 C 132.46182,238.14023 135.13437,215.27961 133.55513,194.79018 M 335.02932,143.6578 C 294.69804,140.55702 266.33251,172.29436 269.18729,209.56446 C 272.04206,246.83456 312.55556,276.68711 352.70462,260.21045 C 370.8051,252.79291 383.62122,238.14023 388.11597,215.94841 C 379.61239,216.43481 370.68362,216.55641 361.57264,216.43481 C 355.37717,228.83791 343.41142,240.20741 324.70354,238.07943 C 305.75269,235.95145 292.99732,219.17078 295.24469,199.22855 C 297.00615,183.23827 311.03706,170.77437 326.64721,169.74078 C 344.56548,168.52479 356.59197,179.16471 363.0304,195.27658 L 389.08781,195.27658 C 383.86418,167.552 364.8526,145.96818 335.02932,143.6578"
   clip-rule="evenodd"
   clip-path="url(#SVGID_603_)" /><path
   style="fill:#ffffff;fill-rule:evenodd"
   id="path7129"
   d="M 139.50764,109.73167 C 148.67937,110.03567 159.18736,109.06288 167.50873,110.21807 C 167.14429,123.71556 168.29835,135.63226 167.99465,149.06896 C 176.49823,144.99538 187.37067,139.76663 201.40158,139.70583 C 236.32701,139.70583 264.20662,167.6128 264.3281,202.20772 C 264.44958,236.31624 238.02773,265.07441 201.8875,265.13521 C 168.17687,265.19601 141.93724,240.14661 139.50764,208.59167 C 137.13879,177.94872 140.60096,144.69139 138.53581,111.19086 C 138.47506,110.33967 138.8395,109.91407 139.50764,109.73167 M 188.09954,171.19997 C 158.9444,184.39347 164.04655,233.21547 198.91125,236.62024 C 215.97915,238.26183 234.68704,227.31792 236.75219,206.09889 C 238.99957,182.75188 220.53464,166.33601 198.91125,168.76799 C 194.65945,169.19359 190.52914,170.10558 188.09954,171.19997"
   clip-rule="evenodd"
   clip-path="url(#SVGID_603_)" /><path
   style="fill:#ffffff;fill-rule:evenodd"
   id="path7133"
   d="M 133.55513,263.18962 L 104.58221,263.18962 L 104.58221,253.3401 C 61.031717,278.2679 7.3984041,246.22656 10.739097,196.31017 C 12.864993,164.02563 39.226101,136.48345 78.038884,139.21943 C 107.49772,141.34741 131.30776,165.18082 133.55513,194.79018 C 135.13437,215.27961 132.40108,238.14023 133.55513,263.18962 M 39.286841,192.8446 C 33.759511,218.92759 55.625868,236.49864 76.641867,234.18826 C 94.620871,232.12108 107.13329,215.82681 105.61479,197.76936 C 104.03555,178.73911 87.818005,165.24162 67.773844,167.7952 C 53.135533,169.61919 42.080875,179.52951 39.286841,192.8446"
   clip-rule="evenodd"
   clip-path="url(#SVGID_603_)" /><path
   style="fill:#ffffff;fill-rule:evenodd"
   id="path7135"
   d="M 389.08781,195.33738 L 363.0304,195.33738 C 356.59197,179.22551 344.56548,168.58559 326.70795,169.74078 C 311.03706,170.83518 297.00615,183.23827 295.24469,199.28935 C 292.99732,219.23158 305.81344,236.01224 324.70354,238.14023 C 343.41142,240.20741 355.37717,228.8987 361.57264,216.4956 C 370.68362,216.55641 379.61239,216.4956 388.11597,216.00921 C 383.62122,238.14023 370.8051,252.85371 352.70462,260.27125 C 312.55556,276.74792 272.1028,246.89536 269.18729,209.62526 C 266.33251,172.29436 294.69804,140.61782 335.02932,143.7186 C 364.8526,145.96818 383.92492,167.6128 389.08781,195.33738"
   clip-rule="evenodd"
   clip-path="url(#SVGID_603_)" /><path
   style="fill-rule:evenodd"
   id="path7137"
   d="M 67.713104,167.7952 C 87.757265,165.24162 103.97482,178.79991 105.55405,197.76936 C 107.07255,215.88761 94.560131,232.18188 76.581127,234.18826 C 55.565128,236.55944 33.698771,218.98839 39.226101,192.8446 C 42.080875,179.52951 53.135533,169.55838 67.713104,167.7952"
   clip-rule="evenodd"
   clip-path="url(#SVGID_603_)" /><path
   style="fill-rule:evenodd"
   id="path7139"
   d="M 198.97198,168.76799 C 220.59538,166.33601 239.06031,182.75188 236.81293,206.15969 C 234.74777,227.37871 216.03989,238.26183 198.97198,236.62024 C 164.1073,233.27627 159.00515,184.45426 188.16029,171.19997 C 190.52914,170.10558 194.65945,169.19359 198.97198,168.76799"
   clip-rule="evenodd"
   clip-path="url(#SVGID_603_)" /></svg>